<?xml version="1.0" encoding="UTF-8"?>
<svg width="742px" height="189px" viewBox="0 0 742 189" version="1.1" xmlns="http://www.w3.org/2000/svg" xmlns:xlink="http://www.w3.org/1999/xlink">
    <!-- Generator: Sketch 63.1 (92452) - https://sketch.com -->
    <title>Multibanco Logo CMYK</title>
    <desc>Created with Sketch.</desc>
    <defs>
        <polygon id="path-1" points="0.483272078 0.120574163 128.650842 0.120574163 128.650842 25.4191771 0.483272078 25.4191771"></polygon>
        <polygon id="path-3" points="0.510482144 0.851722488 515.087799 0.851722488 515.087799 60.1139234 0.510482144 60.1139234"></polygon>
    </defs>
    <g id="Multibanco-Logo-CMYK" stroke="none" stroke-width="1" fill="none" fill-rule="evenodd">
        <g id="Group-13" transform="translate(21.000000, 21.000000)">
            <path d="M11.7476077,129.101029 L11.2301435,133.058206 C10.9990431,135.032608 12.5296651,136.744091 14.5241627,136.744091 L143.005981,136.744091 C145.000478,136.744091 146.5311,135.032608 146.3,133.058206 L145.782536,129.101029 C145.464354,126.01634 147.705024,123.197919 150.776316,122.868014 C153.866029,122.53811 156.585646,124.797201 156.903828,127.875191 L157.397847,131.730215 C158.411005,140.352943 153.5311,147.922321 144.848086,147.922321 L12.6803828,147.922321 C3.99904306,147.922321 -0.880861244,140.352943 0.132296651,131.730215 L0.626315789,127.875191 C0.942822967,124.797201 3.66244019,122.53811 6.75215311,122.868014 C9.82511962,123.197919 12.0657895,126.01634 11.7476077,129.101029" id="Fill-1" fill="#047BC0"></path>
            <path d="M145.978804,58.9424402 C145.978804,64.1807177 144.128325,67.1532057 141.062057,70.8156459 L140.7489,71.1890909 L141.165885,71.4419617 C147.256555,75.1613397 151.488373,80.7847847 151.803206,88.6589474 C152.272105,100.406555 142.356555,110.124498 130.578804,110.097759 L99.5292823,110.097759 C96.5199522,110.097759 94.0733014,107.584067 94.0733014,104.475933 L94.0666029,44.0515311 C94.0666029,40.9433971 96.5149282,38.4297608 99.5242584,38.4297608 L125.146268,38.5000957 C136.321148,38.5185167 145.978804,46.7544019 145.978804,58.9424402 L145.978804,58.9424402 Z M130.520191,99.2142477 C136.768278,99.2292823 141.755359,94.6541627 141.624737,88.6438756 C141.489091,82.491244 135.914211,78.510622 129.682871,78.5005742 L117.106316,78.5005742 C114.318038,78.5005742 112.025455,76.1711483 112.025455,73.2572727 C112.025455,70.3500957 114.31134,68.0139713 117.10799,68.0139713 L125.509665,68.0139713 C131.166603,67.8029665 135.534067,64.3515311 135.80201,58.9675598 C136.088373,53.2201914 131.156555,48.9029665 125.124498,48.891244 L104.735742,48.891244 L104.653684,99.2142477 L130.520191,99.2142477 Z" id="Fill-3" fill="#231F20"></path>
            <path d="M45.9057656,89.3914354 L46.0581579,89.8167943 L46.2122249,89.3914354 C47.6457177,85.412488 49.3856699,81.0148804 51.2194019,76.1986124 C53.1150957,71.1478947 55.0124641,66.316555 56.9115072,61.7096172 C58.8088756,57.0289952 60.6191627,52.8691866 62.3423684,49.2301914 C64.0689234,45.512488 65.4856699,42.9653589 66.5926077,41.5703828 C68.2873445,39.5273206 70.5229904,38.5074641 73.3246651,38.5074641 L74.6208373,38.5074641 C76.3138995,38.5074641 77.6552871,38.9462201 78.6550478,39.805311 C79.5761005,40.6024402 80.1153349,41.531866 80.282799,42.605311 L88.3043301,105.039282 C88.3009809,106.633541 87.8387799,107.881148 86.9277751,108.80555 C86.0167703,109.661292 84.7272967,110.096699 83.0308852,110.096699 C81.3311244,110.096699 79.9863876,109.69311 78.9866268,108.904354 C77.8997847,108.112249 77.2768182,107.072297 77.1093541,105.779474 C76.8514593,103.701244 76.59189,101.393589 76.3339952,98.8682297 C75.9873445,96.3411962 74.7380622,85.4510048 74.3930861,82.701244 C74.0464354,79.8761244 71.8040909,62.2220574 71.0270574,55.8299522 L70.9600718,55.2739713 L68.3894976,60.6880861 C67.5270574,62.5469378 66.5758612,64.7809091 65.5392584,67.3866507 C64.5026555,69.9890431 63.4694019,72.7371292 62.432799,75.6392823 C61.3107895,78.4660766 56.3488278,92.7005263 56.3488278,92.7005263 C55.8749043,94.0033971 55.0124641,96.6041148 54.2153349,98.9888038 C53.4165311,101.381866 52.6914115,103.528756 52.483756,103.942392 C51.2997847,106.300287 49.007201,107.854354 46.0832775,107.872775 C43.1057656,107.856029 40.8182057,106.300287 39.6342344,103.942392 C39.4265789,103.528756 38.7014593,101.381866 37.9009809,98.9888038 C37.1038517,96.6041148 36.2430861,94.0033971 35.767488,92.7005263 C35.767488,92.7005263 30.807201,78.4660766 29.6851914,75.6392823 C28.6485885,72.7371292 27.6153349,69.9890431 26.5770574,67.3866507 C25.5421292,64.7809091 24.590933,62.5469378 23.7284928,60.6880861 L21.1579187,55.2739713 L21.090933,55.8299522 C20.3138995,62.2220574 18.071555,79.8761244 17.7249043,82.701244 C17.3799282,85.4510048 16.1306459,96.3411962 15.7839952,98.8682297 C15.5261005,101.393589 15.2665311,103.701244 15.0086364,105.779474 C14.8411722,107.072297 14.2165311,108.112249 13.1313636,108.904354 C12.1299282,109.69311 10.786866,110.096699 9.08710526,110.096699 C7.39069378,110.096699 6.09954545,109.661292 5.18854067,108.80555 C4.27753589,107.879474 3.81700957,106.628517 3.81366029,105.029234 L11.8351914,42.605311 C12.0026555,41.531866 12.54189,40.6024402 13.4629426,39.805311 C14.4627033,38.9462201 15.8024163,38.5074641 17.4971531,38.5074641 L18.7933254,38.5074641 C21.595,38.5074641 23.8306459,39.5273206 25.5237081,41.5703828 C26.6323206,42.9653589 28.049067,45.512488 29.775622,49.2301914 C31.4988278,52.8691866 33.3091148,57.0289952 35.2048086,61.7096172 C37.1038517,66.316555 39.0012201,71.1478947 40.8985885,76.1986124 C42.7323206,81.0148804 44.4705981,85.412488 45.9057656,89.3914354" id="Fill-5" fill="#231F20"></path>
            <g id="Group-9" transform="translate(14.397129, 0.554234)">
                <mask id="mask-2" fill="white">
                    <use xlink:href="#path-1"></use>
                </mask>
                <g id="Clip-8"></g>
                <path d="M15.769689,0.120406699 L113.362751,0.120406699 C122.558206,0.120406699 127.129976,7.05509569 128.203421,16.1969617 L128.620407,19.1091627 C128.943612,22.2424163 126.654378,25.0591627 123.574713,25.3873923 C120.493373,25.7172967 117.738589,23.4414593 117.415383,20.3098804 L117.026866,17.5082057 C116.619928,14.0400239 115.151268,11.3739952 111.637871,11.3739952 L17.4945694,11.3739952 C13.9828469,11.3739952 12.5141866,14.0400239 12.1055742,17.5082057 L11.7187321,20.3098804 C11.3955263,23.4414593 8.63906699,25.7172967 5.55772727,25.3873923 C2.47973684,25.0591627 0.190502392,22.2424163 0.513708134,19.1091627 L0.93069378,16.1969617 C2.00246411,7.05509569 6.57590909,0.120406699 15.769689,0.120406699" id="Fill-7" fill="#047BC0" mask="url(#mask-2)"></path>
            </g>
            <g id="Group-12" transform="translate(184.210526, 44.094904)">
                <mask id="mask-4" fill="white">
                    <use xlink:href="#path-3"></use>
                </mask>
                <g id="Clip-11"></g>
                <path d="M245.640048,1.15985646 L267.201053,1.21679426 C276.672823,1.23354067 284.868517,8.01583732 284.868517,18.0620096 C284.868517,22.4780383 283.224019,24.948134 280.537895,28.0411962 C285.809665,31.0974163 289.465407,35.7160766 289.770191,42.3510048 C290.22067,52.1744498 281.755359,60.0385646 271.772823,60.0151719 L245.645072,60.0151719 C243.032632,60.0151719 240.915885,57.8966986 240.915885,55.285933 L240.910861,5.88904306 C240.910861,3.27660287 243.027608,1.15985646 245.640048,1.15985646 L245.640048,1.15985646 Z M22.8742584,31.6684689 C20.6369378,26.0249282 17.3780861,20.398134 15.0402871,15.4043541 L9.68143541,55.4215789 C9.27784689,58.4962201 7.61325359,60.0151196 5.11636364,60.0151196 C2.42019139,60.0151196 0.17784689,58.0390431 0.551291866,55.4801914 L6.63023923,9.63521531 L7.25822967,4.79550239 C7.40894737,3.82755981 7.89961722,3.00698565 8.69842105,2.31703349 C9.58430622,1.55507177 10.7682775,1.16990431 12.2620574,1.16990431 L13.3941148,1.16990431 C15.7067943,1.16990431 17.4082297,1.52325359 19.3189952,3.85602871 C20.3890909,5.1622488 27.2166029,18.0234928 31.3044019,28.1215789 C33.2788038,32.998134 35.6685167,39.5962201 37.2945933,44.1763636 C38.9189952,39.5962201 41.3103828,32.998134 43.2847847,28.1215789 C47.3709091,18.0234928 54.2000957,5.16057416 55.2685167,3.85602871 C57.1809569,1.52325359 58.8823923,1.16990431 61.1933971,1.16990431 L62.3271292,1.16990431 C63.8209091,1.16990431 65.0048804,1.55507177 65.8907656,2.31703349 C66.6895694,3.00698565 67.1802392,3.82755981 67.3309569,4.79550239 L67.9589474,9.63354067 L74.1015311,55.4801914 C74.4749761,58.0373684 72.2326316,60.0151196 69.538134,60.0151196 C67.0395694,60.0151196 65.3749761,58.4962201 64.9730622,55.4215789 L59.5522488,15.3976555 C57.2144498,20.3914354 53.9539234,26.0232536 51.7149282,31.6684689 C47.9938756,41.0531579 43.2713876,55.2708612 42.9766507,56.0344976 C42.6099043,57.1045933 41.9249761,58.0591388 40.8783254,58.7658373 C39.6709091,59.5311483 38.5974641,59.8242105 37.2945933,59.8242105 C35.9917225,59.8242105 34.9182775,59.5311483 33.7108612,58.7658373 C32.6323923,58.0373684 31.9424402,57.0660766 31.584067,55.9574641 C31.1972249,54.9074641 26.5500957,40.9426316 22.8742584,31.6684689 L22.8742584,31.6684689 Z M103.615407,50.6823445 C111.705598,50.6823445 118.263493,44.1244498 118.263493,36.035933 L118.32378,5.75172249 C118.32378,3.224689 120.371866,1.16990431 122.903923,1.16990431 C125.43933,1.16990431 127.485742,3.22803828 127.485742,5.75339713 L127.596268,36.0376077 C127.596268,49.2823445 116.858469,60.0151196 103.615407,60.0151196 C90.3706699,60.0151196 79.6345455,49.2789952 79.6345455,36.035933 L79.6948325,5.75172249 C79.6948325,3.224689 81.7429187,1.16990431 84.2766507,1.16990431 C86.8103828,1.16990431 88.8567943,3.22803828 88.8567943,5.75339713 L88.9656459,36.0376077 C88.9656459,44.1261244 95.5235407,50.6823445 103.615407,50.6823445 L103.615407,50.6823445 Z M144.886938,5.82373206 L144.965646,31.7873684 L144.989091,38.0722967 C144.989091,45.1493301 150.719713,50.8280383 157.82689,50.8280383 L171.952488,50.8280383 C174.494593,50.8280383 176.589569,52.8861722 176.589569,55.4533971 C176.589569,58.0038756 174.521388,60.078756 171.964211,60.078756 L157.825215,60.078756 C145.637177,60.078756 135.743397,50.3072249 135.743397,38.0990909 L135.564211,31.8108134 L135.706555,5.81870813 C135.706555,3.28497608 137.76134,1.23186603 140.296746,1.23186603 C142.833828,1.23186603 144.886938,3.29 144.886938,5.82373206 L144.886938,5.82373206 Z M191.016603,60.0151196 C188.528086,60.0151196 186.511818,57.997177 186.511818,55.5103349 L186.471627,10.2062679 L171.08,10.224689 C168.591483,10.224689 166.573541,8.20674641 166.573541,5.71990431 C166.573541,3.22971292 168.593158,1.21344498 171.08,1.21344498 L210.90799,1.16990431 C213.398182,1.16990431 215.41445,3.18784689 215.41445,5.674689 C215.41445,8.16320574 213.394833,10.1794737 210.909665,10.1794737 L195.481196,10.1978947 L195.521388,55.5086603 C195.521388,57.997177 193.503445,60.0151196 191.016603,60.0151196 L191.016603,60.0151196 Z M227.369713,60.0151196 C224.810861,60.0151196 222.737656,57.9385646 222.737656,55.3813876 L222.690766,5.80363636 C222.690766,3.24311005 224.765646,1.16990431 227.322823,1.16990431 C229.883349,1.16990431 231.95823,3.24478469 231.95823,5.80363636 L232.003445,55.3813876 C232.003445,57.9402392 229.928565,60.0151196 227.369713,60.0151196 L227.369713,60.0151196 Z M275.815407,18.0653589 C276.043158,13.5371292 272.104402,10.1978947 267.180957,10.1895215 L250.379282,10.1895215 L250.310622,50.6421822 L271.724258,50.6421822 C276.810144,50.6538756 280.810861,47.1187081 280.715407,42.3510048 C280.614928,37.4844976 276.138612,34.4014833 271.01756,34.3947847 L260.435502,34.3947847 C257.885024,34.3947847 255.808469,32.3266029 255.808469,29.7644019 C255.808469,27.2088995 257.88,25.1390431 260.437177,25.1390431 L267.500813,25.1390431 C272.124498,24.9715789 275.601053,22.3172727 275.815407,18.0653589 L275.815407,18.0653589 Z M339.023062,39.6766029 L317.215885,39.6983732 C314.69555,39.6983732 312.654163,37.655311 312.654163,35.1349761 C312.654163,32.6146411 314.697225,30.5732536 317.215885,30.5732536 L337.674976,30.5548325 L336.512775,24.3218182 C335.481196,17.598134 331.386699,10.4356938 322.784067,10.4356938 C314.427608,10.4356938 309.944593,17.094067 309.058708,24.3218182 L304.190526,55.44 C303.786938,58.5179904 302.122344,60.0151196 299.628804,60.0151196 C296.929282,60.0151196 294.693636,58.0189474 295.065407,55.4651196 L299.767799,24.3452632 C301.308469,10.4507656 310.078565,1.22516746 322.789091,1.14645933 C335.481196,1.22181818 343.658469,9.57492823 345.80201,24.3469378 L350.460861,55.4651196 C350.802488,58.370622 348.566842,60.0151196 345.897464,60.0151196 C343.388852,60.0151196 341.695789,58.4978947 341.335742,55.44 L339.023062,39.6766029 Z M402.210622,5.70315789 C402.210622,3.19789474 404.240287,1.16990431 406.743876,1.16990431 C409.244115,1.16990431 411.277129,3.1962201 411.277129,5.70315789 L411.034306,56.1785167 C411.005837,57.0644019 410.670909,57.9519617 409.962536,58.7306699 C409.03311,59.7538756 407.577847,60.0151196 406.357033,60.0151196 C405.096029,60.0151196 403.726172,60.0117703 402.478565,59.6969378 C401.162297,59.3653589 399.953206,58.6837799 399.007033,57.3574641 C396.342679,53.6213397 388.597464,41.7313876 381.431675,32.1072249 C376.148182,25.0084211 371.236459,19.1957416 367.456794,14.228756 L367.488612,55.5789952 C367.488612,58.0825837 365.457273,60.1122488 362.953684,60.1122488 C360.45512,60.1122488 358.420431,58.085933 358.420431,55.5789952 L358.663254,4.68832536 C358.691722,3.80244019 359.028325,2.91488038 359.735024,2.13617225 C360.666124,1.11296651 362.119713,0.851722488 363.340526,0.851722488 C364.603206,0.851722488 365.971388,0.85507177 367.218995,1.16990431 C368.535263,1.50148325 369.746029,2.1830622 370.690526,3.50937799 C373.138852,6.94406699 382.191962,19.0065072 389.593876,28.8785167 C394.512297,35.4364115 398.812775,40.3297129 402.240766,45.6701435 L402.210622,5.70315789 Z M429.009904,22.7242105 L429.009904,37.9333014 C429.009904,44.9734928 434.717081,50.6806699 441.757273,50.6806699 L456.412057,50.7376077 C458.972584,50.7376077 461.050813,52.8108134 461.050813,55.3763636 C461.050813,57.9419139 458.970909,60.0151196 456.413732,60.0151196 L441.758947,60.1139234 C429.508947,60.1139234 419.574976,50.1833014 419.574976,37.9333014 L419.574976,22.7242105 C419.574976,10.4273206 429.555837,1.11464115 441.757273,1.11464115 L456.412057,1.16990431 C458.972584,1.16990431 461.050813,3.24478469 461.050813,5.80866029 C461.050813,8.37588517 458.970909,10.4474163 456.413732,10.4474163 L441.758947,10.5478947 C434.646746,10.5478947 429.009904,15.7543541 429.009904,22.7242105 L429.009904,22.7242105 Z M515.088134,37.0256459 C515.088134,49.7227751 504.795789,60.0151196 492.09866,60.0151196 L487.930478,60.0151196 C475.235024,60.0151196 464.941005,49.7227751 464.941005,37.0239713 L464.941005,24.159378 C464.941005,11.4622488 475.235024,1.16990431 487.930478,1.16990431 L492.09866,1.16990431 C504.795789,1.16990431 515.088134,11.4622488 515.088134,24.159378 L515.088134,37.0256459 Z M473.963971,24.159378 L473.963971,37.0239713 C473.963971,44.5581818 480.071388,50.6655981 487.605598,50.6655981 L492.425215,50.6655981 C499.959426,50.6655981 506.066842,44.5581818 506.066842,37.0256459 L506.066842,24.159378 C506.066842,16.6251675 499.959426,10.5177512 492.425215,10.5177512 L487.605598,10.5177512 C480.071388,10.5177512 473.963971,16.6251675 473.963971,24.159378 L473.963971,24.159378 Z" id="Fill-10" fill="#231F20" mask="url(#mask-4)"></path>
            </g>
        </g>
    </g>
</svg>