<svg width="1034" height="914" viewBox="0 0 1034 914" fill="none" xmlns="http://www.w3.org/2000/svg">
<rect width="212" height="206" transform="matrix(-1 0 0 1 622.333 104.373)" fill="#D9D9D9"/>
<rect width="223" height="230" transform="matrix(-1 0 0 1 945.333 345.373)" fill="#D9D9D9"/>
<rect width="165" height="239" transform="matrix(-1 0 0 1 599.333 575.373)" fill="#D9D9D9"/>
<path d="M516.635 167.827L516.641 167.853L516.647 167.827C531.413 111.987 617.413 110.773 605.333 188.227C599.013 228.813 534.16 274.68 517.213 306.373C500.003 274.813 434.779 229.493 428.113 188.96C415.396 111.613 501.411 112.12 516.635 167.827ZM455.953 425.493C475.227 431.107 495.584 434.16 516.667 434.16C636.56 434.16 733.747 336.973 733.747 217.08C733.747 97.1866 636.56 3.4984e-06 516.667 3.4984e-06C396.775 3.4984e-06 299.583 97.1866 299.583 217.08C299.583 221.587 299.763 226.04 300.033 230.467C382.756 260.893 444.251 335.48 455.953 425.493Z" fill="#E5173D"/>
<path d="M322.333 345.373H110.333V551.373L217.833 569.373L322.333 551.373V345.373Z" fill="#D9D9D9"/>
<path d="M514.504 815.293L442.007 694.973L518.827 577.373L591.333 697.693L514.504 815.293ZM577.387 487.92C558.107 482.307 537.747 479.253 516.667 479.253C396.775 479.253 299.583 576.44 299.583 696.333C299.583 816.227 396.775 913.413 516.667 913.413C636.56 913.413 733.747 816.227 733.747 696.333C733.747 691.827 733.573 687.373 733.307 682.947C650.573 652.52 589.08 577.933 577.387 487.92Z" fill="#E5173D"/>
<path d="M820.76 505.507C833.067 548.16 866.387 569.907 866.387 569.907H766.107C766.107 569.907 799.253 547.96 811.64 505.693C788.333 550.707 712.267 529.253 727.613 471.067C738.933 428.12 806.853 385.733 816.227 343.507C816.227 343.533 816.24 343.56 816.253 343.587C816.253 343.56 816.267 343.533 816.267 343.507C825.64 385.733 893.56 428.12 904.88 471.067C920.253 529.333 843.96 550.76 820.76 505.507ZM816.253 239.627C795.16 239.627 774.813 242.68 755.533 248.293C743.84 338.307 682.333 412.893 599.613 443.32C599.347 447.747 599.16 452.2 599.16 456.707C599.16 576.6 696.36 673.787 816.253 673.787C936.147 673.787 1033.33 576.6 1033.33 456.707C1033.33 336.813 936.147 239.627 816.253 239.627Z" fill="#211D1D"/>
<path d="M262.176 523.693C252.347 523.693 239.792 516.48 228.323 507.907C243.085 538.853 267.175 554.613 267.175 554.613L166.9 554.547C166.9 554.547 190.849 538.707 205.664 508C194.224 516.52 181.725 523.64 171.939 523.64C147.639 523.627 127.952 503.907 127.968 479.613C127.984 455.32 147.695 435.627 171.995 435.64C178.62 435.653 186.487 438.933 194.423 443.707C183.667 430.56 173.129 414.667 173.136 402.76C173.151 378.467 192.861 358.787 217.161 358.8C241.461 358.813 261.147 378.52 261.132 402.827C261.124 414.72 250.567 430.6 239.792 443.733C247.735 438.973 255.605 435.693 262.232 435.707C286.531 435.72 306.217 455.427 306.201 479.72C306.187 504.027 286.475 523.707 262.176 523.693ZM217.084 239.627C97.192 239.627 0 336.813 0 456.707C0 576.6 97.192 673.787 217.084 673.787C238.167 673.787 258.524 670.733 277.799 665.12C289.499 575.107 350.995 500.52 433.719 470.093C433.988 465.667 434.169 461.213 434.169 456.707C434.169 336.813 336.977 239.627 217.084 239.627Z" fill="#211D1D"/>
</svg>
